<?xml version="1.0" encoding="utf-8"?>
<!-- Generator: Adobe Illustrator 16.0.0, SVG Export Plug-In . SVG Version: 6.00 Build 0)  -->
<!DOCTYPE svg PUBLIC "-//W3C//DTD SVG 1.1//EN" "http://www.w3.org/Graphics/SVG/1.1/DTD/svg11.dtd">
<svg version="1.1" id="Camada_1" xmlns="http://www.w3.org/2000/svg" xmlns:xlink="http://www.w3.org/1999/xlink" x="0px" y="0px"
	 width="640.468px" height="164.563px" viewBox="0 0 640.468 164.563" enable-background="new 0 0 640.468 164.563"
	 xml:space="preserve">
<rect x="430.03" y="-339.956" fill="#FFFFFF" width="671" height="260"/>
<g display="none">
	<path display="inline" d="M-123.267-720.975h11.813v5.953c0,2.563-0.496,4.801-1.488,6.715s-2.383,3.398-4.172,4.453
		s-3.879,1.582-6.27,1.582c-2.422,0-4.539-0.496-6.352-1.488s-3.219-2.387-4.219-4.184s-1.5-3.906-1.5-6.328v-10.055
		c0-2.563,0.496-4.797,1.488-6.703s2.379-3.387,4.16-4.441s3.875-1.582,6.281-1.582c1.984,0,3.793,0.422,5.426,1.266
		s3.004,2.023,4.113,3.539s1.859,3.289,2.25,5.32h-5.18c-0.438-1.766-1.289-3.117-2.555-4.055s-2.617-1.406-4.055-1.406
		c-2.125,0-3.828,0.738-5.109,2.215s-1.922,3.426-1.922,5.848v10.055c0,2.219,0.656,3.996,1.969,5.332s3.047,2.004,5.203,2.004
		c2.125,0,3.828-0.703,5.109-2.109s1.922-3.367,1.922-5.883v-1.477l-6.914-0.023V-720.975z"/>
	<path display="inline" d="M-93.993-702.271c-3.391,0-6.016-0.941-7.875-2.824s-2.789-4.574-2.789-8.074v-2.742
		c0-3.625,0.895-6.43,2.684-8.414s4.309-2.977,7.559-2.977c3.063,0,5.434,1.129,7.113,3.387s2.52,5.41,2.52,9.457v1.594h-16.406
		v-3.844h11.859c-0.141-1.969-0.652-3.508-1.535-4.617s-2.066-1.664-3.551-1.664c-1.797,0-3.195,0.594-4.195,1.781
		s-1.5,2.867-1.5,5.039v3.094c0,2.016,0.531,3.563,1.594,4.641s2.57,1.617,4.523,1.617c2.047,0,3.859-0.742,5.438-2.227l3.141,3.141
		c-1.203,1.156-2.555,2.051-4.055,2.684S-92.478-702.271-93.993-702.271z"/>
	<path display="inline" d="M-68.024-702.271c-3.391,0-6.016-0.941-7.875-2.824s-2.789-4.574-2.789-8.074v-2.742
		c0-3.625,0.895-6.43,2.684-8.414s4.309-2.977,7.559-2.977c3.063,0,5.434,1.129,7.113,3.387s2.52,5.41,2.52,9.457v1.594H-75.22
		v-3.844h11.859c-0.141-1.969-0.652-3.508-1.535-4.617s-2.066-1.664-3.551-1.664c-1.797,0-3.195,0.594-4.195,1.781
		s-1.5,2.867-1.5,5.039v3.094c0,2.016,0.531,3.563,1.594,4.641s2.57,1.617,4.523,1.617c2.047,0,3.859-0.742,5.438-2.227l3.141,3.141
		c-1.203,1.156-2.555,2.051-4.055,2.684S-66.509-702.271-68.024-702.271z"/>
	<path display="inline" d="M-52.251-702.623v-34.078h4.781v34.078H-52.251z M-50.493-706.186l0.305-5.672l12.516-15.094h5.625
		L-50.493-706.186z M-36.056-702.623l-8.484-14.039l3.07-3.188l10.617,17.227H-36.056z"/>
	<path display="inline" d="M-17.54-702.271c-3.188,0-5.656-0.926-7.406-2.777s-2.625-4.457-2.625-7.816v-3.961
		c0-3.328,0.875-5.906,2.625-7.734s4.219-2.742,7.406-2.742s5.656,0.914,7.406,2.742s2.625,4.406,2.625,7.734v4.031
		c0,3.344-0.875,5.934-2.625,7.77S-14.353-702.271-17.54-702.271z M-17.563-706.818c1.672,0,2.969-0.52,3.891-1.559
		s1.383-2.512,1.383-4.418v-4.031c0-1.891-0.461-3.352-1.383-4.383s-2.219-1.547-3.891-1.547s-2.961,0.516-3.867,1.547
		s-1.359,2.492-1.359,4.383v4.031c0,1.906,0.453,3.379,1.359,4.418S-19.235-706.818-17.563-706.818z"/>
</g>
<g display="none">
	<path display="inline" d="M-121.251-653.603c-1.563,1.484-3.02,2.566-4.371,3.246s-2.715,1.02-4.09,1.02
		c-1.641,0-3.047-0.391-4.219-1.172s-2.066-1.906-2.684-3.375s-0.926-3.203-0.926-5.203c0-2.484,0.652-5.051,1.957-7.699
		s3.059-5.098,5.262-7.348s4.602-4.047,7.195-5.391s5.117-2.016,7.57-2.016c3.938,0,5.906,1.727,5.906,5.18
		c0,1.344-0.363,2.648-1.09,3.914s-1.691,2.281-2.895,3.047s-2.477,1.148-3.82,1.148c-0.547,0-0.82-0.195-0.82-0.586
		c0-0.109,0.094-0.375,0.281-0.797c0.422-0.828,0.742-1.727,0.961-2.695c0.25-1.375,0.375-2.43,0.375-3.164
		c0-1.313-0.156-1.969-0.469-1.969c-0.734,0-1.762,0.523-3.082,1.57s-2.402,2.188-3.246,3.422c-0.766,1.078-1.473,2.359-2.121,3.844
		s-1.156,2.984-1.523,4.5s-0.551,2.906-0.551,4.172c0,1.203,0.258,2.191,0.773,2.965s1.188,1.16,2.016,1.16
		c1.422,0,3.023-1.805,4.805-5.414c0.563-1,0.94-1.637,1.136-1.91s0.473-0.52,0.832-0.738c0.968-0.609,2.189-1.152,3.665-1.629
		s2.619-0.715,3.432-0.715c0.952,0,1.429,0.477,1.429,1.429c0,0.078-0.047,0.422-0.141,1.03c-1.104,4.58-2.445,8.768-4.023,12.564
		c-1.579,3.797-3.109,6.5-4.594,8.109c-0.688,0.734-1.703,1.344-3.048,1.828c-1.344,0.484-2.719,0.727-4.125,0.727
		c-1.156,0-2.332-0.195-3.527-0.586s-2.176-0.891-2.941-1.5s-1.148-1.211-1.148-1.805c0-0.391,0.219-0.836,0.656-1.336
		s1.031-1,1.781-1.5c1.188-0.797,1.977-1.195,2.367-1.195c0.406,0,0.977,0.445,1.711,1.336c0.891,1.031,1.836,1.883,2.836,2.555
		c0.547-1.281,1.074-2.852,1.582-4.711S-121.36-652.587-121.251-653.603z"/>
	<path display="inline" d="M-99.618-655.829c0.172,0.938,0.781,1.406,1.828,1.406c1.172,0,2.695-0.688,4.57-2.063
		c1.094-0.797,1.828-1.195,2.203-1.195c0.469,0,0.906,0.125,1.313,0.375s0.609,0.508,0.609,0.773c0,0.281-0.227,0.648-0.68,1.102
		c-0.828,0.828-1.781,1.637-2.859,2.426s-2.117,1.445-3.117,1.969s-2,0.938-3,1.242s-1.891,0.457-2.672,0.457
		c-1.953,0-3.516-0.559-4.688-1.676s-1.758-2.605-1.758-4.465c0-1.422,0.309-3.027,0.926-4.816s1.449-3.465,2.496-5.027
		c1.234-1.828,2.75-3.352,4.547-4.57c2.219-1.469,4.344-2.203,6.375-2.203c1.469,0,2.621,0.465,3.457,1.395s1.254,2.207,1.254,3.832
		c0,1.266-0.332,2.586-0.996,3.961s-1.645,2.695-2.941,3.961c-1.063,1.063-2.105,1.891-3.129,2.484s-1.918,0.891-2.684,0.891
		C-98.907-655.571-99.259-655.657-99.618-655.829z M-99.665-656.579c0.719-0.484,1.266-0.969,1.641-1.453
		c0.828-1.016,1.469-2.18,1.922-3.492c0.359-0.859,0.641-1.82,0.844-2.883s0.305-2.055,0.305-2.977c0-0.859-0.18-1.289-0.539-1.289
		c-0.5,0-1.266,1.102-2.297,3.305c-0.609,1.328-1.105,2.652-1.488,3.973s-0.574,2.457-0.574,3.41
		C-99.853-657.657-99.79-657.188-99.665-656.579z"/>
	<path display="inline" d="M-79.134-655.829c0.172,0.938,0.781,1.406,1.828,1.406c1.172,0,2.695-0.688,4.57-2.063
		c1.094-0.797,1.828-1.195,2.203-1.195c0.469,0,0.906,0.125,1.313,0.375s0.609,0.508,0.609,0.773c0,0.281-0.227,0.648-0.68,1.102
		c-0.828,0.828-1.781,1.637-2.859,2.426s-2.117,1.445-3.117,1.969s-2,0.938-3,1.242s-1.891,0.457-2.672,0.457
		c-1.953,0-3.516-0.559-4.688-1.676s-1.758-2.605-1.758-4.465c0-1.422,0.309-3.027,0.926-4.816s1.449-3.465,2.496-5.027
		c1.234-1.828,2.75-3.352,4.547-4.57c2.219-1.469,4.344-2.203,6.375-2.203c1.469,0,2.621,0.465,3.457,1.395s1.254,2.207,1.254,3.832
		c0,1.266-0.332,2.586-0.996,3.961s-1.645,2.695-2.941,3.961c-1.063,1.063-2.105,1.891-3.129,2.484s-1.918,0.891-2.684,0.891
		C-78.423-655.571-78.774-655.657-79.134-655.829z M-79.181-656.579c0.719-0.484,1.266-0.969,1.641-1.453
		c0.828-1.016,1.469-2.18,1.922-3.492c0.359-0.859,0.641-1.82,0.844-2.883s0.305-2.055,0.305-2.977c0-0.859-0.18-1.289-0.539-1.289
		c-0.5,0-1.266,1.102-2.297,3.305c-0.609,1.328-1.105,2.652-1.488,3.973s-0.574,2.457-0.574,3.41
		C-79.368-657.657-79.306-657.188-79.181-656.579z"/>
	<path display="inline" d="M-44.47-645.126c-2.188,2.817-3.852,4.227-4.992,4.227c-0.828,0-1.699-0.324-2.613-0.973
		s-1.77-1.523-2.566-2.625s-1.43-2.293-1.898-3.574s-0.703-2.5-0.703-3.656c0-0.656,0.109-1.094,0.328-1.313
		c0.094-0.094,0.305-0.25,0.633-0.469c2.625-1.625,3.938-3.164,3.938-4.617c0-0.766-0.336-1.148-1.008-1.148
		c-0.719,0-1.645,0.691-2.777,2.074s-2.16,3.074-3.082,5.074c-0.547,1.266-1.016,2.07-1.406,2.414
		c-0.359,0.313-0.914,0.469-1.664,0.469c-0.828,0-1.547-0.23-2.156-0.691s-1.082-1.117-1.418-1.969s-0.504-1.824-0.504-2.918
		c0-1.688,0.211-3.531,0.633-5.531s1.012-4.008,1.77-6.023s1.66-3.984,2.707-5.906s2.141-3.617,3.281-5.086
		c2.25-2.844,4.445-4.266,6.586-4.266c1.063,0,2.012,0.242,2.848,0.727s1.48,1.172,1.934,2.063s0.68,1.93,0.68,3.117
		c0,1.453-0.359,2.902-1.078,4.348s-1.652,2.625-2.801,3.539s-2.301,1.371-3.457,1.371c-0.547,0-0.82-0.195-0.82-0.586
		c0-0.156,0.141-0.523,0.422-1.102c1.375-2.719,2.063-5.805,2.063-9.258c0-0.891-0.109-1.336-0.328-1.336
		c-0.156,0-0.395,0.227-0.715,0.68s-0.629,1.008-0.926,1.664c-1.719,3.859-2.961,8.305-3.727,13.336
		c-0.047,0.266-0.098,0.617-0.152,1.055s-0.121,0.938-0.199,1.5l0.094,0.094c0.641-0.906,1.168-1.582,1.582-2.027
		s0.965-0.926,1.652-1.441c2.109-1.656,4.078-2.484,5.906-2.484c0.938,0,1.707,0.273,2.309,0.82s0.902,1.25,0.902,2.108
		c0,2.108-0.671,4.28-2.014,6.514c-0.375,0.656-0.808,1.305-1.3,1.945c-0.491,0.64-1.198,1.468-2.118,2.483
		c0.563,0.952,1.205,1.911,1.926,2.879c0.642,0.843,1.448,1.686,2.419,2.528C-45.446-646.394-44.842-645.736-44.47-645.126z"/>
	<path display="inline" d="M-27.149-672.868c2.328,0,3.492,0.273,3.492,0.82c0,0.625-0.523,0.961-1.57,1.008
		c-1.266,0.078-2.445,0.438-3.539,1.078s-2.066,1.516-2.918,2.625s-1.516,2.359-1.992,3.75s-0.715,2.859-0.715,4.406
		c0,1.703,0.398,3.074,1.195,4.113s1.836,1.559,3.117,1.559c1.188,0,2.227-0.609,3.117-1.828s1.336-2.641,1.336-4.266
		c0-1.328-0.277-2.574-0.832-3.738s-1.363-2.145-2.426-2.941c-0.453-0.359-0.68-0.617-0.68-0.773c0-0.219,0.32-0.555,0.961-1.008
		c0.719-0.484,1.523-0.891,2.414-1.219s1.641-0.492,2.25-0.492c0.703,0,1.371,0.184,2.004,0.551s1.191,0.891,1.676,1.57
		s0.855,1.461,1.113,2.344s0.387,1.824,0.387,2.824c0,1.656-0.313,3.293-0.938,4.91s-1.445,2.926-2.461,3.926
		c-1.313,1.266-2.895,2.301-4.746,3.105s-3.613,1.207-5.285,1.207c-1.625,0-3.238-0.281-4.84-0.844s-2.871-1.305-3.809-2.227
		c-1.25-1.25-1.875-3.023-1.875-5.32c0-1.813,0.445-3.625,1.336-5.438s2.098-3.457,3.621-4.934s3.203-2.641,5.039-3.492
		S-29.024-672.868-27.149-672.868z"/>
</g>
<line id="hfgh" display="none" x1="-138.97" y1="-813.956" x2="-138.97" y2="-628.956"/>
<g display="none">
	<linearGradient id="SVGID_1_" gradientUnits="userSpaceOnUse" x1="215.1826" y1="-436.6602" x2="215.9184" y2="-464.6187">
		<stop  offset="0.0099" style="stop-color:#D34040"/>
		<stop  offset="0.7097" style="stop-color:#F47020"/>
		<stop  offset="1" style="stop-color:#F7931E"/>
	</linearGradient>
	<path display="inline" fill="url(#SVGID_1_)" d="M206.432-431.845c-11.068-7.801-0.764-28.653,2.975-31.056
		c9.507-4.223,5.455-31.056,3.756-31.056c0.683,0,9.714,10.659,10.748,22.451c1.488,5.374-3.288,18.854-3.324,24.23
		c0.188,5.464,8.659,15.43,8.357,15.43"/>
</g>
<g display="none">
	
		<linearGradient id="SVGID_2_" gradientUnits="userSpaceOnUse" x1="322.1143" y1="-435.1963" x2="322.3759" y2="-445.1373" gradientTransform="matrix(-0.9741 -0.2259 -0.2259 0.9741 444.1949 51.2609)">
		<stop  offset="0.0099" style="stop-color:#D34040"/>
		<stop  offset="0.7097" style="stop-color:#F47020"/>
		<stop  offset="1" style="stop-color:#F7931E"/>
	</linearGradient>
	<path display="inline" fill="url(#SVGID_2_)" d="M232.348-443.211c6.232-1.75,3.354-9.687,0.9-11.031
		c-2.318-2.364,0.279-11.15-0.598-11.15c-0.207,0-2.533,2.262-4.944,6.416c-0.72,1.894-1.629,7.089-2.297,8.976
		c-0.771,1.918-3.524,4.966-3.7,4.966"/>
</g>
<g display="none">
	<linearGradient id="SVGID_3_" gradientUnits="userSpaceOnUse" x1="220.832" y1="-441.3994" x2="210.0873" y2="-472.8199">
		<stop  offset="0.0099" style="stop-color:#D34040"/>
		<stop  offset="0.7097" style="stop-color:#F47020"/>
		<stop  offset="1" style="stop-color:#F7931E"/>
	</linearGradient>
	<path display="inline" fill="url(#SVGID_3_)" d="M229.518-468.885c-8.068-3.008-4.737-13.525-4.009-23.292
		c1.449-9.766,0.297-18.779-0.102-18.779c-0.276,0-1.002,4.438-6.043,11c-4.327,6.563-12.97,15.25-12.603,23.75
		c0.016,7.566,1.404,16.879,0.095,24.536c-0.282,1.588-0.656,5.11-1.488,7.392c0.321,2.271-0.002,0-0.038,0.817
		c-0.031,0.753-0.136,1.516-0.269,2.279c0.062,1.581-0.096,3.2-0.786,4.883c-0.381,0.929-0.972,1.729-1.712,2.353
		c-0.116,0.226-0.238,0.443-0.36,0.665c-0.485,2.249-1.369,4.417-3.239,6.275c-0.014,0.125-0.025,0.251-0.055,0.378
		c-0.155,0.689-0.376,1.349-0.761,1.98c8.199,0,16.398,0,24.598,0c-1.513-4.013-0.955-7.457,2.024-10.683
		c0.601-0.644,1.514-1.037,2.563-1.255c1.237-3.272,3.426-6.231,8.39-8.193c1.341-0.527,2.718-0.731,4.06-0.699
		c1.361-1.183,2.998-2.206,5.022-3.013C240.232-458.191,233.56-467.103,229.518-468.885z"/>
</g>
<g display="none">
	
		<linearGradient id="SVGID_4_" gradientUnits="userSpaceOnUse" x1="277.2998" y1="-445.5889" x2="277.5614" y2="-455.5299" gradientTransform="matrix(-0.9741 -0.2259 -0.2259 0.9741 444.1949 51.2609)">
		<stop  offset="0.0099" style="stop-color:#D34040"/>
		<stop  offset="0.7097" style="stop-color:#F47020"/>
		<stop  offset="1" style="stop-color:#F7931E"/>
	</linearGradient>
	<path display="inline" fill="url(#SVGID_4_)" d="M278.348-443.211c6.231-1.75,3.355-9.687,0.9-11.031
		c-2.319-2.364,0.28-11.15-0.598-11.15c-0.208,0-2.532,2.262-4.944,6.416c-0.719,1.894-1.629,7.089-2.297,8.976
		c-0.771,1.918-3.524,4.966-3.7,4.966"/>
</g>
<g display="none">
	
		<linearGradient id="SVGID_5_" gradientUnits="userSpaceOnUse" x1="305.7051" y1="-430.9268" x2="306.3444" y2="-455.2213" gradientTransform="matrix(1 0 0 1 -14 0)">
		<stop  offset="0.0099" style="stop-color:#D34040"/>
		<stop  offset="0.7097" style="stop-color:#F47020"/>
		<stop  offset="1" style="stop-color:#F7931E"/>
	</linearGradient>
	<path display="inline" fill="url(#SVGID_5_)" d="M304.252-430.273c-0.166-0.41-0.275-0.823-0.296-1.229
		c-1.182-1.287-1.582-2.801-1.06-4.104c-1.145-1.636-1.905-3.237-2.026-4.543c0.043-4.666,5.825-16.367,4.025-21.032
		c-1.253-10.234-12.183-19.486-13.01-19.486c2.057,0,6.961,23.29-4.545,26.956c-3.397,1.043-6.149,6.089-8.337,11.721
		c-1.83,5.632-3.097,11.85,4.735,15.234c7.351,0,14.701,0,22.052,0C304.733-427.862,304.145-429.124,304.252-430.273z"/>
</g>
<g>
	<path fill="#D34040" d="M84.27,104.997V78.909h67.383v61.68c-6.548,6.336-16.036,11.916-28.464,16.739
		c-12.428,4.824-25.014,7.235-37.757,7.235c-16.194,0-30.312-3.397-42.353-10.191c-12.04-6.795-21.088-16.512-27.143-29.15
		c-6.056-12.639-9.083-26.387-9.083-41.242c0-16.125,3.38-30.453,10.139-42.986C23.752,28.46,33.645,18.849,46.67,12.16
		c9.929-5.14,22.285-7.71,37.071-7.71c19.222,0,34.237,4.031,45.045,12.093s19.768,25.261,22.866,39.482l-33.058-0.246
		c-2.183-7.604-6.284-13.606-12.305-18.007c-6.021-4.401-13.536-6.602-22.549-6.602c-13.659,0-24.521,4.33-32.582,12.991
		c-8.062,8.659-12.093,21.51-12.093,38.549c0,18.377,4.083,32.161,12.251,41.349c8.168,9.189,18.87,13.783,32.107,13.783
		c6.548,0,13.114-1.285,19.697-3.855c6.583-2.569,12.233-5.686,16.951-9.347v-19.644H84.27z"/>
	<path fill="#D34040" d="M231.894,119.134l29.573-0.352c-3.803,10.843-9.805,24.414-18.008,30.082
		c-8.202,5.669-18.465,8.502-30.787,8.502c-19.504,0-33.938-6.371-43.302-19.116c-7.394-10.209-11.091-23.094-11.091-38.654
		c0-18.589,4.858-33.146,14.575-43.672c9.717-10.527,22.004-15.79,36.86-15.79c16.688,0,29.854,5.51,39.5,16.529
		c9.646,11.019,14.259,27.899,13.836,50.642h-74.354c0.211,8.801,2.604,15.649,7.182,20.543c4.576,4.893,10.28,7.34,17.109,7.34
		c4.648,0,8.556-1.267,11.725-3.803C227.881,128.851,230.275,124.768,231.894,119.134z M233.585,89.139
		c-0.212-8.59-2.431-15.12-6.654-19.591c-4.226-4.472-9.365-6.707-15.42-6.707c-6.478,0-11.829,2.358-16.055,7.076
		c-4.224,4.718-6.301,11.125-6.23,19.222H233.585z"/>
	<path fill="#D34040" d="M343.523,119.134l31.183-0.352c-3.802,10.843-11.415,24.414-19.618,30.082
		c-8.202,5.669-18.465,8.502-30.786,8.502c-19.505,0-33.938-6.371-43.303-19.116c-7.393-10.209-11.09-23.094-11.09-38.654
		c0-18.589,4.858-33.146,14.575-43.672c9.717-10.527,22.003-15.79,36.859-15.79c16.688,0,29.854,5.51,39.501,16.529
		c9.646,11.019,14.258,27.899,13.835,50.642h-74.354c0.213,8.801,2.605,15.649,7.183,20.543c4.577,4.893,10.28,7.34,17.109,7.34
		c4.646,0,8.555-1.267,11.724-3.803C339.51,128.851,341.903,124.768,343.523,119.134z M345.213,89.139
		c-0.21-8.59-2.428-15.12-6.653-19.591c-4.225-4.472-9.364-6.707-15.42-6.707c-6.477,0-11.829,2.358-16.053,7.076
		c-4.226,4.718-6.303,11.125-6.231,19.222H345.213z"/>
	<linearGradient id="SVGID_6_" gradientUnits="userSpaceOnUse" x1="432.9873" y1="156.1436" x2="436.9624" y2="5.0855">
		<stop  offset="0.5813" style="stop-color:#D34040"/>
		<stop  offset="0.8298" style="stop-color:#F47020"/>
		<stop  offset="1" style="stop-color:#F7931E"/>
	</linearGradient>
	<path fill="url(#SVGID_6_)" d="M383.144,154.832V4.45h29.677v77.719l50.461-56.811l5.566,4.626l7.99,6.64l7.273,6.044
		l-38.339,40.979l41.085,71.185h-32.001l-28.199-50.378l-13.837,14.47v35.908H383.144z"/>
	<linearGradient id="SVGID_7_" gradientUnits="userSpaceOnUse" x1="544.3682" y1="84.7158" x2="545.3328" y2="48.0579">
		<stop  offset="0.0099" style="stop-color:#D34040"/>
		<stop  offset="0.6229" style="stop-color:#F47020"/>
		<stop  offset="1" style="stop-color:#F7931E"/>
	</linearGradient>
	<path fill="url(#SVGID_7_)" d="M577.329,63.594c1.779-0.724-0.16-12.039-0.16-12.039s9.346,7.299,16.141,21.663
		c4.259,9.001,7.85,19.055,7.85,25.538c0,16.969-4.022,30.711-14.972,41.871c-10.947,11.159-24.731,16.739-41.348,16.739
		c-10.279,0-20.085-2.322-29.414-6.971c-9.329-4.646-16.423-11.458-21.281-20.437c-4.858-8.977-7.287-19.908-7.287-32.793
		c0-9.857,4.108-18.838,8.965-28.061c4.858-9.224,26.476-34.052,26.476-34.052s-4.257,15.321,2.871,12.501
		c2.938-1.162,8.182-7.104,11.333-15.25c2.779-7.182,3.667-16.75,3.667-16.75s11.144,10.032,20.333,22.083
		C569.69,49.688,576.925,63.758,577.329,63.594z M517.273,98.751c0,11.124,2.641,19.644,7.921,25.56
		c5.281,5.913,11.794,8.869,19.54,8.869c7.745,0,14.239-2.956,19.485-8.869c5.246-5.916,7.869-14.506,7.869-25.771
		c0-10.984-2.623-19.434-7.869-25.348s-11.74-8.871-19.485-8.871c-7.746,0-14.259,2.957-19.54,8.871
		C519.914,79.105,517.273,87.626,517.273,98.751z"/>
</g>
<path fill="#D34040" d="M494.245,147.193c0-4.354-3.531-7.887-7.886-7.887c-4.355,0-7.885,3.532-7.885,7.887s3.695,7.325,8.05,7.325
	S494.245,151.548,494.245,147.193z"/>
<g>
	<linearGradient id="SVGID_8_" gradientUnits="userSpaceOnUse" x1="615.6182" y1="156.4941" x2="619.1729" y2="21.411">
		<stop  offset="0.5813" style="stop-color:#D34040"/>
		<stop  offset="0.8298" style="stop-color:#F47020"/>
		<stop  offset="1" style="stop-color:#F7931E"/>
	</linearGradient>
	<path fill="url(#SVGID_8_)" d="M605.291,145.339c0-6.479,4.5-11.159,10.62-11.159c6.479,0,10.619,4.68,10.619,11.159
		c0,6.3-4.14,11.159-10.619,11.159C609.611,156.498,605.291,151.639,605.291,145.339z M609.791,119.6l-0.761-98.056l17.238,0.054
		l-4.237,98.002H609.791z"/>
</g>
</svg>
